# Blender v2.83.4 OBJ File: ''
# www.blender.org
mtllib example1.mtl
o Cube
v 0.038786 0.273544 0.001578
v 0.101090 -0.085204 -0.032213
v 0.006602 0.178501 0.055572
v 0.061187 -0.123994 0.129436
v -0.038786 0.273544 0.001578
v -0.101090 -0.085204 -0.032213
v -0.006602 0.178501 0.055572
v -0.061187 -0.123994 0.129436
vt 0.625000 0.500000
vt 0.875000 0.500000
vt 0.875000 0.750000
vt 0.625000 0.750000
vt 0.375000 0.750000
vt 0.625000 1.000000
vt 0.375000 1.000000
vt 0.375000 0.000000
vt 0.625000 0.000000
vt 0.625000 0.250000
vt 0.375000 0.250000
vt 0.125000 0.500000
vt 0.375000 0.500000
vt 0.125000 0.750000
vn -0.0000 0.4940 0.8695
vn 0.0000 0.2372 0.9715
vn -0.8927 0.1828 0.4119
vn 0.0000 -0.9724 -0.2333
vn 0.8927 0.1828 0.4119
vn -0.0000 0.0938 -0.9956
usemtl Material
s off
f 1/1/1 5/2/1 7/3/1 3/4/1
f 4/5/2 3/4/2 7/6/2 8/7/2
f 8/8/3 7/9/3 5/10/3 6/11/3
f 6/12/4 2/13/4 4/5/4 8/14/4
f 2/13/5 1/1/5 3/4/5 4/5/5
f 6/11/6 5/10/6 1/1/6 2/13/6
